<?xml version="1.0" encoding="UTF-8" standalone="no"?>
<!-- Created with Inkscape (http://www.inkscape.org/) -->

<svg
   width="210mm"
   height="297mm"
   viewBox="0 0 210 297"
   version="1.1"
   id="svg1"
   xml:space="preserve"
   inkscape:version="1.4 (86a8ad7, 2024-10-11)"
   sodipodi:docname="yo-o-maskr-logo.svg"
   xmlns:inkscape="http://www.inkscape.org/namespaces/inkscape"
   xmlns:sodipodi="http://sodipodi.sourceforge.net/DTD/sodipodi-0.dtd"
   xmlns="http://www.w3.org/2000/svg"
   xmlns:svg="http://www.w3.org/2000/svg"><sodipodi:namedview
     id="namedview1"
     pagecolor="#ffffff"
     bordercolor="#000000"
     borderopacity="0.25"
     inkscape:showpageshadow="2"
     inkscape:pageopacity="0.0"
     inkscape:pagecheckerboard="0"
     inkscape:deskcolor="#d1d1d1"
     inkscape:document-units="mm"
     inkscape:zoom="0.25417602"
     inkscape:cx="639.32073"
     inkscape:cy="316.70966"
     inkscape:window-width="1920"
     inkscape:window-height="1009"
     inkscape:window-x="-8"
     inkscape:window-y="-8"
     inkscape:window-maximized="1"
     inkscape:current-layer="g2" /><defs
     id="defs1" /><g
     inkscape:label="Ebene 1"
     inkscape:groupmode="layer"
     id="layer1"><g
       id="g2"
       transform="matrix(2.5985527,0,0,2.5985527,-224.11239,-110.7982)"><path
         style="fill:none;stroke:#181818;stroke-width:2.12764"
         d="m 90.925578,59.40842 c -0.52755,-2.812494 1.896727,-5.836179 4.648567,-5.957305 2.38026,-0.104704 4.876755,1.716268 5.441285,4.268923 0.57661,2.607356 -2.271895,8.891298 -5.441285,8.098736 -2.24523,-0.561457 -4.24002,-4.232294 -4.648567,-6.410354 m 68.822912,40.531445 c 3.23468,11.510685 1.10951,23.589785 -7.8833,32.649905 -6.08214,6.12768 -14.20837,9.55702 -22.51529,9.57036 -2.66512,0.005 -4.34331,0.08 -6.75524,-0.34619 -8.53759,-1.50857 -15.97105,-6.52032 -20.95592,-13.72722 -2.573435,-3.72057 -4.207515,-7.98694 -5.049045,-12.38459 -0.46252,-2.41702 -0.45306,-4.80371 -0.45306,-7.31819 0,-2.54659 -0.17489,-7.00049 0.87179,-9.474375 0.85207,-2.01415 1.74344,-2.55025 2.98843,-4.601222 3.427355,-5.646278 9.107285,-11.245558 15.279645,-14.192438 12.01436,-5.736061 25.30857,-2.905925 35.46501,5.750552 M 96.136635,103.76948 v -9.472861 -7.304277 -20.26573"
         id="path2"
         sodipodi:nodetypes="ccssccsssssssssccccc" /><path
         style="fill:#000000;stroke-width:0.075706"
         d="m 126.70396,139.05747 c -4.33237,-0.37188 -7.81497,-1.32214 -11.59573,-3.164 -4.55656,-2.21983 -8.31656,-5.34775 -11.32484,-9.42102 -2.75318,-3.72791 -4.748834,-8.51186 -5.200354,-12.46628 -0.0695,-0.60786 -0.1159,-0.7544 -0.34671,-1.09298 -1.02977,-1.51052 -1.0235,-4.81192 0.0118,-6.25403 0.17846,-0.24856 0.25728,-0.44198 0.25728,-0.63128 0,-0.15011 0.0535,-0.63358 0.11912,-1.07437 1.0518,-7.076352 5.333394,-13.966038 11.562084,-18.605033 3.14436,-2.341843 7.5201,-4.397924 11.27282,-5.296892 2.66917,-0.639405 4.06419,-0.799333 6.99263,-0.801625 2.36075,-0.002 3.08519,0.04943 4.90244,0.346959 4.6353,0.758942 9.45003,2.848874 13.5435,5.878859 3.48521,2.579742 6.62981,6.296015 8.60837,10.17332 1.56181,3.060605 2.59689,6.335182 2.86027,9.048802 0.0394,0.4057 0.10866,0.65026 0.24524,0.86527 0.60243,0.94867 0.80708,1.88862 0.75547,3.46996 -0.0437,1.34083 -0.22406,2.05561 -0.72675,2.88102 -0.23456,0.38516 -0.31791,0.60223 -0.31791,0.82807 0,0.70995 -0.5257,3.07365 -1.03015,4.63166 -2.1365,6.599 -6.92529,12.5491 -13.06054,16.22788 -4.01528,2.40762 -7.93165,3.75263 -12.58144,4.32091 -0.90225,0.11024 -4.18892,0.19983 -4.94667,0.1348 z m 4.97844,-4.2109 c 5.57685,-0.80188 10.38702,-3.0845 14.43486,-6.84992 3.11267,-2.8955 5.52334,-6.55294 6.78514,-10.29426 0.18607,-0.55173 0.34115,-1.10196 0.34461,-1.22275 0.0102,-0.36933 -0.10245,-0.42748 -0.91069,-0.46871 -0.47435,-0.0243 -0.90088,-0.0947 -1.18774,-0.19652 -0.24619,-0.0873 -0.48234,-0.13749 -0.52479,-0.11148 -0.0425,0.026 -0.0542,0.0102 -0.0261,-0.0347 0.0294,-0.0471 -0.0857,-0.16297 -0.27033,-0.27215 l -0.32143,-0.19016 -0.23707,0.69409 c -0.52523,1.5377 -1.4595,3.49732 -2.31979,4.86565 -1.89139,3.00843 -4.58888,5.70404 -7.57893,7.57368 -2.52385,1.57813 -5.49138,2.64902 -8.64375,3.11926 -1.13132,0.16876 -4.1897,0.19287 -5.24446,0.0414 -1.9733,-0.28347 -4.33803,-0.90205 -5.56391,-1.45542 -2.37234,-1.0709 -3.52712,-1.74051 -5.38107,-3.12018 -2.07215,-1.54206 -3.68271,-3.25959 -5.20739,-5.55328 -1.14556,-1.72337 -2.3133,-4.14905 -2.81663,-5.8509 l -0.0946,-0.31985 -0.38708,0.22439 c -0.21289,0.12341 -0.38137,0.25038 -0.3744,0.28215 0.007,0.0317 -0.0614,0.061 -0.15202,0.0651 -0.0906,0.005 -0.36853,0.0634 -0.61769,0.13196 -0.24916,0.0686 -0.70154,0.12475 -1.00534,0.12475 -0.49348,0 -0.56461,0.0186 -0.6676,0.17455 -0.13737,0.20799 -0.0792,0.47545 0.40522,1.86144 1.44854,4.1449 4.3581,8.18597 7.95702,11.05147 4.05891,3.23174 8.66775,5.16182 13.8675,5.80739 1.08357,0.13452 4.59533,0.0874 5.7385,-0.0769 z m -0.79805,-7.12318 c 5.08173,-1.08308 9.68394,-5.02607 11.80165,-10.11125 1.08232,-2.59894 1.47271,-4.9351 1.40369,-8.39983 -0.0481,-2.41424 -0.20664,-3.35754 -0.74282,-4.4193 -0.88209,-1.74677 -3.51343,-2.94085 -6.48054,-2.94085 -1.16497,0 -2.18559,0.13636 -3.73979,0.49966 -2.95152,0.68991 -3.16209,0.7231 -4.63641,0.73059 -1.5065,0.008 -1.58668,-0.005 -3.91436,-0.55204 -2.14989,-0.50652 -2.7562,-0.60498 -4.03707,-0.65556 -1.78276,-0.0704 -3.2353,0.18178 -4.56928,0.79322 -1.67285,0.76677 -2.42761,1.59796 -2.82732,3.11363 -0.28103,1.06561 -0.37419,2.03953 -0.37433,3.91279 -2.3e-4,3.27182 0.52179,5.94112 1.64523,8.413 1.9529,4.29683 5.8229,7.81459 10.11135,9.19102 1.6588,0.5324 2.45789,0.64874 4.1938,0.61056 1.0683,-0.0235 1.63204,-0.0718 2.1662,-0.18564 z m -3.97686,-2.98209 c -1.47458,-0.25744 -2.96081,-0.9497 -4.19387,-1.95341 -0.61724,-0.50243 -0.72187,-0.64957 -0.72197,-1.01532 -1.6e-4,-0.44868 0.31009,-0.76713 0.74732,-0.76713 0.25879,0 0.39008,0.0698 0.89892,0.47761 1.00799,0.80794 1.90348,1.27564 3.02808,1.58152 0.5082,0.13821 0.80773,0.16538 1.82416,0.16532 1.04216,-3e-5 1.30308,-0.0248 1.82415,-0.17353 0.86105,-0.24569 1.74017,-0.68668 2.46677,-1.23739 1.05105,-0.79663 1.07908,-0.81353 1.34981,-0.81353 0.33943,0 0.52607,0.10505 0.66704,0.37554 0.27923,0.53572 0.0783,0.8874 -0.945,1.65341 -1.10072,0.82403 -2.06583,1.29293 -3.28799,1.59751 -0.81911,0.20415 -2.77903,0.26277 -3.65742,0.10945 z m 0.0329,-4.97217 c -0.1,-0.0549 -0.22695,-0.18098 -0.28233,-0.28011 -0.12621,-0.22591 -0.13084,-0.6698 -0.008,-0.82771 0.20246,-0.26161 0.41142,-0.29509 1.8416,-0.29509 h 1.41696 l 0.22218,0.22042 c 0.37681,0.37384 0.26833,0.91696 -0.2347,1.17503 -0.29702,0.15239 -2.68056,0.1584 -2.95506,0.007 z m -6.94918,-5.78149 c -1.4009,-0.34154 -2.8645,-1.36879 -3.30248,-2.31793 -0.15065,-0.32646 -0.1785,-0.47698 -0.13993,-0.75611 0.19238,-1.39259 1.806,-2.84998 3.52393,-3.1828 0.65449,-0.12677 1.90056,-0.056 2.52692,0.14337 1.01514,0.32328 2.24202,1.25547 2.85174,2.1668 0.76318,1.14074 0.74309,2.12189 -0.0567,2.76853 -1.37934,1.11522 -3.63993,1.6081 -5.40348,1.17814 z m 14.16145,0.0485 c -1.57686,-0.32707 -3.02477,-1.24338 -3.27524,-2.07279 -0.22611,-0.74875 0.49658,-2.15645 1.55416,-3.02729 0.64731,-0.53304 1.55298,-0.99146 2.30833,-1.16843 0.73567,-0.17236 1.99283,-0.11969 2.64231,0.11069 1.44198,0.51153 2.67064,1.69925 2.92566,2.82818 0.0666,0.29512 0.0586,0.44572 -0.0417,0.78841 -0.10516,0.3587 -0.21395,0.51141 -0.71025,0.99657 -0.66303,0.64813 -1.31992,1.04444 -2.27969,1.37533 -0.57146,0.19702 -0.77718,0.22817 -1.64144,0.24852 -0.62928,0.0148 -1.16748,-0.014 -1.48212,-0.0791 z m -29.24444,0.0649 c 0.86381,-0.22208 1.63719,-0.68876 2.26959,-1.36957 l 0.33451,-0.36013 -1.90018,-0.0432 c -2.1604,-0.0489 -2.22479,-0.0636 -2.85983,-0.64991 -0.53212,-0.49133 -0.74869,-0.96612 -0.75012,-1.64462 -0.002,-0.98223 0.43988,-1.71892 1.27545,-2.126 l 0.43433,-0.2116 h 1.91918 c 1.3609,0 1.91918,-0.0244 1.91917,-0.084 -2e-5,-0.22072 -0.80119,-1.07314 -1.37649,-1.46455 -0.70669,-0.48081 -1.25136,-0.63073 -2.27184,-0.62534 -0.73761,0.005 -0.95989,0.0349 -1.42369,0.19829 -1.35331,0.47689 -2.44412,1.63285 -2.792304,2.95911 -0.15205,0.57919 -0.14845,1.66897 0.007,2.29196 0.372444,1.48696 1.464584,2.62134 2.990144,3.10576 0.53714,0.17057 1.60894,0.18201 2.2245,0.0237 z m 49.19449,0.002 c 1.0535,-0.27224 1.86297,-0.84281 2.46716,-1.73902 0.54438,-0.80748 0.71802,-1.42155 0.72294,-2.55645 0.003,-0.75919 -0.0246,-0.98701 -0.17372,-1.4151 -0.64196,-1.84403 -2.48173,-3.02947 -4.4826,-2.88833 -1.35004,0.0953 -2.48299,0.71332 -3.17506,1.73216 l -0.26116,0.38448 1.99604,0.0377 1.99605,0.0377 0.43508,0.21195 c 1.74216,0.84876 1.6793,3.28591 -0.10866,4.21088 -0.30545,0.15801 -0.45027,0.17157 -2.2504,0.21064 l -1.92396,0.0418 0.27758,0.32146 c 0.3262,0.37776 1.09269,0.93666 1.5746,1.14815 0.86442,0.37936 2.04135,0.48548 2.90609,0.26202 z m -1.37824,-3.22501 c 0.29029,-0.18887 0.50526,-0.56714 0.5056,-0.88964 2.8e-4,-0.31467 -0.25718,-0.73712 -0.53404,-0.87612 -0.14191,-0.0712 -1.03415,-0.0945 -3.65507,-0.0954 l -3.46735,-10e-4 0.009,0.99913 0.009,0.99914 0.49404,0.0377 c 0.27173,0.0208 1.82954,0.0208 3.46182,0 2.69387,-0.0342 2.98709,-0.0503 3.17692,-0.17376 z m -41.44984,-0.84423 v -1.018 h -3.46558 c -3.87626,0 -3.74072,-0.018 -4.05572,0.53802 -0.12426,0.21939 -0.15064,0.35292 -0.11103,0.56233 0.0653,0.34512 0.42902,0.76317 0.74246,0.85326 0.13162,0.0378 1.73568,0.0717 3.56459,0.0756 l 3.32529,0.007 z m -4.32584,-6.10799 c 0.20928,-0.76522 0.89742,-2.44005 1.42226,-3.46158 0.59783,-1.163592 1.633,-2.768902 2.50672,-3.887352 0.6645,-0.85064 2.83143,-3.000363 3.74726,-3.717506 5.09565,-3.990204 11.54263,-5.650405 17.66548,-4.54916 1.91462,0.344361 4.09708,1.068606 5.8343,1.936107 2.496,1.246408 4.40126,2.637132 6.37716,4.654979 2.44283,2.49468 4.08678,5.153302 5.23058,8.458952 0.17938,0.51842 0.33958,0.95769 0.35601,0.97616 0.0164,0.0184 0.26124,-0.0905 0.54405,-0.24199 0.64125,-0.34363 1.26374,-0.50795 1.92423,-0.50795 0.61737,0 0.74953,-0.098 0.74953,-0.55614 0,-0.2903 -0.39678,-1.58054 -0.83406,-2.71221 -0.2849,-0.737322 -1.33522,-2.753552 -1.88111,-3.611062 -1.86795,-2.934239 -4.24277,-5.425616 -7.11444,-7.46359 -4.37276,-3.10328 -9.14857,-4.722274 -14.34055,-4.861416 -4.08157,-0.109379 -7.71442,0.65303 -11.62902,2.440572 -1.6676,0.761478 -4.09825,2.316949 -5.75177,3.680793 -3.71836,3.066943 -6.75527,7.486611 -7.99913,11.641273 -0.26492,0.88488 -0.2802,1.04163 -0.12324,1.26397 0.0961,0.13617 0.21137,0.16242 0.85508,0.19483 0.78656,0.0396 1.33833,0.20887 1.96047,0.60147 0.33871,0.21374 0.37019,0.19618 0.50019,-0.27915 z m 8.2822,-2.63589 c 0.51063,-0.26463 1.76166,-0.67855 2.54222,-0.84115 0.55383,-0.11536 1.00241,-0.14207 2.35622,-0.14032 1.7816,0.002 2.48272,0.0901 4.23709,0.53066 3.412,0.85679 4.41056,0.8762 7.58839,0.14745 2.86941,-0.65801 2.99996,-0.67597 4.934,-0.67826 1.37333,-0.002 1.83282,0.0247 2.33302,0.13406 1.22402,0.26741 2.3766,0.71703 2.96845,1.15799 0.29933,0.22302 0.3053,0.15929 0.0459,-0.48944 -0.27539,-0.68855 -0.78299,-1.571292 -1.39496,-2.425872 -2.48505,-3.47026 -6.11817,-5.59655 -10.51036,-6.151176 -1.31505,-0.166062 -3.36529,-0.116468 -4.58836,0.110972 -4.38073,0.81469 -7.69188,2.953644 -10.01274,6.468134 -0.46295,0.701025 -1.16866,2.059212 -1.30284,2.507372 l -0.0548,0.18296 0.2564,-0.16703 c 0.14102,-0.0919 0.41212,-0.24772 0.60242,-0.34636 z"
         id="path1" /></g></g></svg>
